<?xml version="1.0" standalone="no"?>
<!DOCTYPE svg PUBLIC "-//W3C//DTD SVG 20010904//EN"
 "http://www.w3.org/TR/2001/REC-SVG-20010904/DTD/svg10.dtd">
<svg version="1.0" xmlns="http://www.w3.org/2000/svg"
 width="260.000000pt" height="260.000000pt" viewBox="0 0 260.000000 260.000000"
 preserveAspectRatio="xMidYMid meet">
<metadata>
Created by potrace 1.14, written by Peter Selinger 2001-2017
</metadata>
<g transform="translate(0.000000,260.000000) scale(0.100000,-0.100000)"
fill="#000000" stroke="none">
<path d="M719 2167 c-1 -1 -2 -408 -3 -905 l-1 -902 185 2 185 3 1 335 c1 184
2 342 3 351 1 15 18 17 134 17 416 3 645 152 724 472 2 8 5 60 8 116 9 258
-74 403 -268 468 -105 35 -223 44 -599 45 -203 0 -369 0 -369 -2z m661 -266
c75 -20 137 -69 166 -129 48 -100 25 -250 -49 -331 -82 -88 -222 -132 -392
-122 -20 1 -20 7 -19 299 1 163 2 298 3 299 4 8 254 -7 291 -16z"/>
</g>
</svg>
